<?xml version="1.0" encoding="UTF-8" standalone="no"?>
<svg
   xmlns:dc="http://purl.org/dc/elements/1.1/"
   xmlns:cc="http://creativecommons.org/ns#"
   xmlns:rdf="http://www.w3.org/1999/02/22-rdf-syntax-ns#"
   xmlns:svg="http://www.w3.org/2000/svg"
   xmlns="http://www.w3.org/2000/svg"
   xmlns:sodipodi="http://sodipodi.sourceforge.net/DTD/sodipodi-0.dtd"
   xmlns:inkscape="http://www.inkscape.org/namespaces/inkscape"
   inkscape:export-ydpi="96"
   inkscape:export-xdpi="96"
   inkscape:export-filename="C:\Users\Computer\Documents\West-MEC\New folder\portfolio-main\portfolio-main\favicon.png"
   sodipodi:docname="drawing.svg"
   inkscape:version="1.0 (4035a4fb49, 2020-05-01)"
   id="svg8"
   version="1.1"
   viewBox="0 0 210 297"
   height="297mm"
   width="210mm">
  <defs
     id="defs2">
    <filter
       height="1.3778945"
       y="-0.18894723"
       width="1.3606842"
       x="-0.1803421"
       id="filter1020"
       style="color-interpolation-filters:sRGB"
       inkscape:collect="always">
      <feGaussianBlur
         id="feGaussianBlur1022"
         stdDeviation="4.8502439"
         inkscape:collect="always" />
    </filter>
  </defs>
  <sodipodi:namedview
     inkscape:window-maximized="1"
     inkscape:window-y="-8"
     inkscape:window-x="-8"
     inkscape:window-height="705"
     inkscape:window-width="1366"
     inkscape:snap-global="false"
     showgrid="false"
     inkscape:document-rotation="0"
     inkscape:current-layer="layer1"
     inkscape:document-units="mm"
     inkscape:cy="485.57518"
     inkscape:cx="348.97197"
     inkscape:zoom="1.6051641"
     inkscape:pageshadow="2"
     inkscape:pageopacity="0.0"
     borderopacity="1.0"
     bordercolor="#666666"
     pagecolor="#ffffff"
     id="base" />
  <metadata
     id="metadata5">
    <rdf:RDF>
      <cc:Work
         rdf:about="">
        <dc:format>image/svg+xml</dc:format>
        <dc:type
           rdf:resource="http://purl.org/dc/dcmitype/StillImage" />
        <dc:title></dc:title>
      </cc:Work>
    </rdf:RDF>
  </metadata>
  <g
     id="layer1"
     inkscape:groupmode="layer"
     inkscape:label="Layer 1">
    <path
       d="M 124.5753,129.70023 A 31.143826,31.143826 0 0 1 93.431473,160.84405 31.143826,31.143826 0 0 1 62.287647,129.70023 31.143826,31.143826 0 0 1 93.431473,98.5564 31.143826,31.143826 0 0 1 124.5753,129.70023 Z"
       style="fill:#bfe4f2;fill-rule:evenodd;stroke:none;stroke-width:0.639;stroke-opacity:0.992157;paint-order:markers fill stroke;stop-color:#000000"
       id="path10" />
    <path
       d="m 113.05939,157.69026 c -1.83255,1.30896 -17.59616,-10.62189 -19.848104,-10.64006 -2.251943,-0.0182 -18.206037,11.65674 -20.017216,10.31838 -1.81118,-1.33836 4.664503,-20.01729 3.985896,-22.16463 -0.678607,-2.14734 -16.712189,-13.71284 -15.999018,-15.84895 0.71317,-2.13611 20.478977,-1.74947 22.311518,-3.05843 1.832541,-1.30896 7.877336,-20.131737 10.129279,-20.113566 2.251944,0.01817 7.992205,18.936046 9.803385,20.274406 1.81118,1.33836 21.58065,1.27074 22.25925,3.41808 0.67861,2.14735 -15.53952,13.4526 -16.25269,15.58871 -0.71317,2.13611 5.46024,20.9171 3.6277,22.22606 z"
       inkscape:transform-center-y="-3.1076781"
       inkscape:transform-center-x="-0.083364642"
       style="fill:#ffff00;fill-rule:evenodd;stroke:none;stroke-width:0.639;stroke-opacity:0.992157;paint-order:markers fill stroke;stop-color:#000000"
       id="path16" />
    <path
       sodipodi:type="star"
       style="fill:#ffff2d;fill-opacity:1;fill-rule:evenodd;stroke:none;stroke-width:0.639;stroke-opacity:0.992157;paint-order:markers fill stroke;filter:url(#filter1020);stop-color:#000000"
       id="path16-8"
       sodipodi:sides="5"
       sodipodi:cx="93.348108"
       sodipodi:cy="130.09447"
       sodipodi:r1="33.912567"
       sodipodi:r2="16.956285"
       sodipodi:arg1="0.95054684"
       sodipodi:arg2="1.5788654"
       inkscape:flatsided="false"
       inkscape:rounded="0.1"
       inkscape:randomized="0"
       d="m 113.05939,157.69026 c -1.83255,1.30896 -17.59616,-10.62189 -19.848104,-10.64006 -2.251943,-0.0182 -18.206037,11.65674 -20.017216,10.31838 -1.81118,-1.33836 4.664503,-20.01729 3.985896,-22.16463 -0.678607,-2.14734 -16.712189,-13.71284 -15.999018,-15.84895 0.71317,-2.13611 20.478977,-1.74947 22.311518,-3.05843 1.832541,-1.30896 7.877336,-20.131737 10.129279,-20.113566 2.251944,0.01817 7.992205,18.936046 9.803385,20.274406 1.81118,1.33836 21.58065,1.27074 22.25925,3.41808 0.67861,2.14735 -15.53952,13.4526 -16.25269,15.58871 -0.71317,2.13611 5.46024,20.9171 3.6277,22.22606 z"
       inkscape:transform-center-x="-0.083364642"
       inkscape:transform-center-y="-3.1076781" />
    <g
       style="font-style:normal;font-weight:normal;font-size:44.2599px;line-height:1.25;font-family:sans-serif;fill:#284854;fill-opacity:1;stroke:none;stroke-width:1.1065"
       id="text14"
       aria-label="BS">
      <path
         id="path1026"
         style="font-style:normal;font-variant:normal;font-weight:normal;font-stretch:normal;font-family:'Gill Sans MT';-inkscape-font-specification:'Gill Sans MT';fill:#284854;fill-opacity:1;stroke-width:1.1065"
         d="M 83.447061,144.81732 H 73.224926 v -30.19095 h 7.909729 q 3.738751,0 5.835045,1.01573 2.096294,0.99411 3.198469,2.76624 1.102175,1.75051 1.102175,4.06292 0,4.45192 -4.603202,6.37533 3.306526,0.62672 5.251541,2.72302 1.966626,2.09629 1.966626,5.01381 0,2.31241 -1.18862,4.12776 -1.188621,1.81535 -3.501027,2.96074 -2.290796,1.1454 -5.748601,1.1454 z m -2.182739,-26.34415 h -3.71714 v 9.07674 h 2.8743 q 3.457805,0 4.905761,-1.31829 1.469567,-1.31829 1.469567,-3.41458 0,-4.34387 -5.532488,-4.34387 z m 0.324169,12.92355 h -4.041309 v 9.57379 h 4.257422 q 3.54425,0 4.797704,-0.54028 1.275066,-0.56189 2.03146,-1.7289 0.778006,-1.16701 0.778006,-2.50691 0,-1.38312 -0.821228,-2.52852 -0.799618,-1.1454 -2.290796,-1.70729 -1.491178,-0.56189 -4.711259,-0.56189 z" />
      <path
         id="path1028"
         style="font-style:normal;font-variant:normal;font-weight:normal;font-stretch:normal;font-family:'Gill Sans MT';-inkscape-font-specification:'Gill Sans MT';fill:#284854;fill-opacity:1;stroke-width:1.1065"
         d="m 105.59862,132.15311 -3.28491,-1.98824 q -3.090416,-1.88018 -4.408704,-3.69552 -1.296676,-1.83696 -1.296676,-4.2142 0,-3.56586 2.463685,-5.79183 2.485295,-2.22596 6.440165,-2.22596 3.78197,0 6.93722,2.11791 v 4.90576 q -3.26331,-3.13364 -7.02367,-3.13364 -2.1179,0 -3.47941,0.99412 -1.36152,0.97251 -1.36152,2.50691 0,1.36151 0.99412,2.55013 0.99412,1.18862 3.22008,2.4853 l 3.30653,1.94501 q 5.53249,3.28492 5.53249,8.38518 0,3.63069 -2.44208,5.89988 -2.42046,2.26918 -6.31049,2.26918 -4.47354,0 -8.147453,-2.74463 v -5.48927 q 3.501023,4.43032 8.104233,4.43032 2.03146,0 3.37136,-1.12379 1.36151,-1.1454 1.36151,-2.85269 0,-2.76624 -3.97648,-5.22993 z" />
    </g>
  </g>
</svg>
